<?xml version="1.0" encoding="UTF-8" standalone="no"?>
<!DOCTYPE svg PUBLIC "-//W3C//DTD SVG 1.1//EN" "http://www.w3.org/Graphics/SVG/1.1/DTD/svg11.dtd">
<svg width="100%" height="100%" viewBox="0 0 325 377" version="1.1" xmlns="http://www.w3.org/2000/svg" xmlns:xlink="http://www.w3.org/1999/xlink" xml:space="preserve" xmlns:serif="http://www.serif.com/" style="fill-rule:evenodd;clip-rule:evenodd;stroke-linejoin:round;stroke-miterlimit:2;">
    <g id="path4553" transform="matrix(1,0,0,1,2.74392,3.30393)">
        <path d="M4.41,368.376C25.331,350.47 38.677,332.229 45.599,312.083C49.624,300.365 51,291.881 51.924,273.083C52.815,254.95 55.138,239.7 59.11,225.903C61.504,217.59 61.117,215.583 57.12,215.583C48.711,215.583 39.59,209.594 35.5,201.388C27.431,185.195 39.373,165.569 57.282,165.589C64.969,165.597 69.633,167.286 74.592,171.857C80.165,176.994 81.792,180.097 82.721,187.359C83.605,194.268 83.533,194.259 96.894,189.059C102.111,187.029 116.635,182.725 129.172,179.494C165.757,170.067 179.549,164.443 190.27,154.583C196.525,148.831 201.91,141.387 201.91,138.496C201.91,134.815 184.34,130.574 169.202,130.6C158.276,130.619 150.489,132.022 136.587,136.476C96.916,149.183 54.641,146.189 19.045,128.151C10.027,123.582 10.08,123.481 27.82,111.482C52.21,94.984 83.928,83.007 112.41,79.538C127.239,77.732 152.272,77.962 166.225,80.033C172.723,80.998 178.253,81.574 178.513,81.313C178.774,81.053 174.433,77.809 168.867,74.103C150.853,62.111 133.304,41.817 125.08,23.469C120.412,13.054 116.741,1.352 117.807,0.286C119.017,-0.924 131.637,1.851 142.91,5.805C179.028,18.472 209.259,45.416 226.075,79.927C229.851,87.676 227.596,87.073 243.41,84.559C261.837,81.631 280.446,87.801 295.453,101.816C309.683,115.106 317.797,130.976 318.678,147.245C319.507,162.559 316.237,166.668 298.41,172.71C292.315,174.776 289.536,175.083 276.91,175.083C268.935,175.083 260.16,174.682 257.41,174.192L252.41,173.3L257.141,178.379C263.991,185.731 269.266,194.38 272.01,202.755C275.45,213.258 275.465,230.966 272.042,241.083C270.739,244.933 269.07,248.723 268.333,249.506C267.188,250.722 266.832,250.503 265.889,248.006C262.945,240.212 259.855,235.498 253.422,228.988C248.016,223.518 245.07,221.394 240.558,219.714C228.473,215.213 209.855,214.522 196.41,218.075C172.418,224.414 149.521,244.773 130.246,276.904C119.599,294.653 113.153,303.31 101.926,314.939C76.947,340.81 49.39,357.659 11.103,370.469C-1.728,374.762 -2.698,374.459 4.41,368.376L4.41,368.376ZM271.93,115.073C275.656,113.146 276.91,110.753 276.91,105.572C276.91,94.765 262.003,91.538 257.027,101.267C254.889,105.448 255.675,109.548 259.31,113.183C263.137,117.01 267.051,117.596 271.93,115.073Z" style="fill:rgb(9,179,156);fill-rule:nonzero;"/>
    </g>
</svg>
